<svg xmlns="http://www.w3.org/2000/svg" version="1.1" xmlns:xlink="http://www.w3.org/1999/xlink" viewBox="0 0 54856 66286" stroke-linecap="round" stroke-linejoin="round" stroke-width="0">
<g transform="translate(-32474,77593) scale(1,-1)"><g id=".boardoutline.ger" transform="scale(1, 1)" style="color:#CFCFCF;fill-opacity:.8;" fill-rule="evenodd" fill="currentColor" stroke="currentColor"><defs></defs><g><path d="M 37677 72390 37677 20320 41487 16510 82127 16510 82127 72390 37677 72390" fill="none" stroke-width="406"></path>
<path d="M 42440 22860 42442 22939 42448 23018 42458 23097 42471 23174 42489 23252 42511 23328 42536 23403 42565 23476 42597 23549 42633 23619 42673 23688 42716 23754 42762 23818 42811 23880 42864 23939 42919 23996 42977 24050 43038 24101 43101 24149 43166 24193 43234 24234 43303 24272 43374 24307 43447 24337 43522 24364 43597 24388 43674 24407 43751 24423 43830 24435 43908 24443 43987 24447 44067 24447 44146 24443 44224 24435 44303 24423 44380 24407 44457 24388 44532 24364 44607 24337 44680 24307 44751 24272 44821 24234 44888 24193 44953 24149 45016 24101 45077 24050 45135 23996 45190 23939 45243 23880 45292 23818 45338 23754 45381 23688 45421 23619 45457 23549 45489 23476 45518 23403 45543 23328 45565 23252 45583 23174 45596 23097 45606 23018 45612 22939 45614 22860 45612 22781 45606 22702 45596 22623 45583 22546 45565 22468 45543 22392 45518 22317 45489 22244 45457 22171 45421 22101 45381 22032 45338 21966 45292 21902 45243 21840 45190 21781 45135 21724 45077 21670 45016 21619 44953 21571 44888 21527 44820 21486 44751 21448 44680 21413 44607 21383 44532 21356 44457 21332 44380 21313 44303 21297 44224 21285 44146 21277 44067 21273 43987 21273 43908 21277 43830 21285 43751 21297 43674 21313 43597 21332 43522 21356 43447 21383 43374 21413 43303 21448 43233 21486 43166 21527 43101 21571 43038 21619 42977 21670 42919 21724 42864 21781 42811 21840 42762 21902 42716 21966 42673 22032 42633 22101 42597 22171 42565 22244 42536 22317 42511 22392 42489 22468 42471 22546 42458 22623 42448 22702 42442 22781 42440 22860 M 70380 66040 70382 66119 70388 66198 70398 66277 70411 66354 70429 66432 70451 66508 70476 66583 70505 66656 70537 66729 70573 66799 70613 66868 70656 66934 70702 66998 70751 67060 70804 67119 70859 67176 70917 67230 70978 67281 71041 67329 71106 67373 71174 67414 71243 67452 71314 67487 71387 67517 71462 67544 71537 67568 71614 67587 71691 67603 71770 67615 71848 67623 71927 67627 72007 67627 72086 67623 72164 67615 72243 67603 72320 67587 72397 67568 72472 67544 72547 67517 72620 67487 72691 67452 72761 67414 72828 67373 72893 67329 72956 67281 73017 67230 73075 67176 73130 67119 73183 67060 73232 66998 73278 66934 73321 66868 73361 66799 73397 66729 73429 66656 73458 66583 73483 66508 73505 66432 73523 66354 73536 66277 73546 66198 73552 66119 73554 66040 73552 65961 73546 65882 73536 65803 73523 65726 73505 65648 73483 65572 73458 65497 73429 65424 73397 65351 73361 65281 73321 65212 73278 65146 73232 65082 73183 65020 73130 64961 73075 64904 73017 64850 72956 64799 72893 64751 72828 64707 72760 64666 72691 64628 72620 64593 72547 64563 72472 64536 72397 64512 72320 64493 72243 64477 72164 64465 72086 64457 72007 64453 71927 64453 71848 64457 71770 64465 71691 64477 71614 64493 71537 64512 71462 64536 71387 64563 71314 64593 71243 64628 71173 64666 71106 64707 71041 64751 70978 64799 70917 64850 70859 64904 70804 64961 70751 65020 70702 65082 70656 65146 70613 65212 70573 65281 70537 65351 70505 65424 70476 65497 70451 65572 70429 65648 70411 65726 70398 65803 70388 65882 70382 65961 70380 66040" fill="none" stroke-width="0"></path>
</g></g>
<g id=".toplayer.ger" transform="scale(1, 1)" style="color:#555555;fill-opacity:1;" fill-rule="evenodd" fill="currentColor" stroke="currentColor"><defs><circle cx="0" cy="0" r="1016" id=".toplayer.ger_pad-10"></circle><circle cx="0" cy="0" r="940" id=".toplayer.ger_pad-11"></circle><circle cx="0" cy="0" r="2159" id=".toplayer.ger_pad-12"></circle><circle cx="0" cy="0" r="813" id=".toplayer.ger_pad-13"></circle><circle cx="0" cy="0" r="508" id=".toplayer.ger_pad-14"></circle></defs><g><use xlink:href="#.toplayer.ger_pad-10" x="45297" y="54483"></use>
<use xlink:href="#.toplayer.ger_pad-10" x="45297" y="57277"></use>
<use xlink:href="#.toplayer.ger_pad-11" x="73237" y="46990"></use>
<use xlink:href="#.toplayer.ger_pad-11" x="75777" y="46990"></use>
<use xlink:href="#.toplayer.ger_pad-11" x="73237" y="35560"></use>
<use xlink:href="#.toplayer.ger_pad-11" x="75777" y="35560"></use>
<use xlink:href="#.toplayer.ger_pad-11" x="73237" y="24130"></use>
<use xlink:href="#.toplayer.ger_pad-11" x="75777" y="24130"></use>
<use xlink:href="#.toplayer.ger_pad-11" x="80476" y="50419"></use>
<use xlink:href="#.toplayer.ger_pad-11" x="80476" y="52959"></use>
<use xlink:href="#.toplayer.ger_pad-11" x="80476" y="55499"></use>
<use xlink:href="#.toplayer.ger_pad-11" x="80476" y="58039"></use>
<use xlink:href="#.toplayer.ger_pad-11" x="80476" y="60579"></use>
<use xlink:href="#.toplayer.ger_pad-11" x="80476" y="63119"></use>
<use xlink:href="#.toplayer.ger_pad-11" x="80476" y="65659"></use>
<use xlink:href="#.toplayer.ger_pad-11" x="80476" y="68199"></use>
<use xlink:href="#.toplayer.ger_pad-11" x="57997" y="22860"></use>
<use xlink:href="#.toplayer.ger_pad-11" x="57997" y="25400"></use>
<use xlink:href="#.toplayer.ger_pad-11" x="60537" y="22860"></use>
<use xlink:href="#.toplayer.ger_pad-11" x="60537" y="25400"></use>
<use xlink:href="#.toplayer.ger_pad-11" x="63077" y="22860"></use>
<use xlink:href="#.toplayer.ger_pad-11" x="63077" y="25400"></use>
<use xlink:href="#.toplayer.ger_pad-11" x="49107" y="48260"></use>
<use xlink:href="#.toplayer.ger_pad-11" x="41487" y="48260"></use>
<use xlink:href="#.toplayer.ger_pad-11" x="78317" y="41910"></use>
<use xlink:href="#.toplayer.ger_pad-11" x="70697" y="41910"></use>
<use xlink:href="#.toplayer.ger_pad-11" x="78317" y="30480"></use>
<use xlink:href="#.toplayer.ger_pad-11" x="70697" y="30480"></use>
<use xlink:href="#.toplayer.ger_pad-11" x="78317" y="19050"></use>
<use xlink:href="#.toplayer.ger_pad-11" x="70697" y="19050"></use>
<use xlink:href="#.toplayer.ger_pad-12" x="50107" y="67310"></use>
<use xlink:href="#.toplayer.ger_pad-12" x="44107" y="67310"></use>
<use xlink:href="#.toplayer.ger_pad-12" x="47107" y="62610"></use>
<use xlink:href="#.toplayer.ger_pad-13" x="56727" y="64770"></use>
<use xlink:href="#.toplayer.ger_pad-13" x="56727" y="62230"></use>
<use xlink:href="#.toplayer.ger_pad-13" x="56727" y="59690"></use>
<use xlink:href="#.toplayer.ger_pad-13" x="56727" y="57150"></use>
<use xlink:href="#.toplayer.ger_pad-13" x="56727" y="54610"></use>
<use xlink:href="#.toplayer.ger_pad-13" x="56727" y="52070"></use>
<use xlink:href="#.toplayer.ger_pad-13" x="56727" y="49530"></use>
<use xlink:href="#.toplayer.ger_pad-13" x="56727" y="46990"></use>
<use xlink:href="#.toplayer.ger_pad-13" x="56727" y="44450"></use>
<use xlink:href="#.toplayer.ger_pad-13" x="56727" y="41910"></use>
<use xlink:href="#.toplayer.ger_pad-13" x="56727" y="39370"></use>
<use xlink:href="#.toplayer.ger_pad-13" x="56727" y="36830"></use>
<use xlink:href="#.toplayer.ger_pad-13" x="56727" y="34290"></use>
<use xlink:href="#.toplayer.ger_pad-13" x="56727" y="31750"></use>
<use xlink:href="#.toplayer.ger_pad-13" x="64347" y="31750"></use>
<use xlink:href="#.toplayer.ger_pad-13" x="64347" y="34290"></use>
<use xlink:href="#.toplayer.ger_pad-13" x="64347" y="36830"></use>
<use xlink:href="#.toplayer.ger_pad-13" x="64347" y="39370"></use>
<use xlink:href="#.toplayer.ger_pad-13" x="64347" y="41910"></use>
<use xlink:href="#.toplayer.ger_pad-13" x="64347" y="44450"></use>
<use xlink:href="#.toplayer.ger_pad-13" x="64347" y="46990"></use>
<use xlink:href="#.toplayer.ger_pad-13" x="64347" y="49530"></use>
<use xlink:href="#.toplayer.ger_pad-13" x="64347" y="52070"></use>
<use xlink:href="#.toplayer.ger_pad-13" x="64347" y="54610"></use>
<use xlink:href="#.toplayer.ger_pad-13" x="64347" y="57150"></use>
<use xlink:href="#.toplayer.ger_pad-13" x="64347" y="59690"></use>
<use xlink:href="#.toplayer.ger_pad-13" x="64347" y="62230"></use>
<use xlink:href="#.toplayer.ger_pad-13" x="64347" y="64770"></use>
<use xlink:href="#.toplayer.ger_pad-14" x="54187" y="25400"></use>
<use xlink:href="#.toplayer.ger_pad-14" x="41487" y="38100"></use>
<use xlink:href="#.toplayer.ger_pad-14" x="68157" y="25400"></use>
<use xlink:href="#.toplayer.ger_pad-14" x="49107" y="41910"></use>
<path d="M 41487 38100 54187 25400 M 80526 69596 80526 68250 80425 68250 80425 69596 80366 69596 80149 69562 79939 69494 79743 69394 79566 69265 79410 69109 79281 68931 79181 68735 79113 68526 79079 68309 79079 68250 80425 68250 80425 68148 79079 68148 79079 68089 79113 67872 79181 67663 79281 67467 79385 67324 79368 67317 78818 66767 78520 66048 78520 65270 78818 64551 78980 64389 78818 64227 78520 63508 78520 62730 78818 62011 78980 61849 78818 61687 78520 60968 78520 60190 78818 59471 78980 59309 78818 59147 78520 58428 78520 57650 78818 56931 78980 56769 78818 56607 78520 55888 78520 55110 78818 54391 78980 54229 78818 54067 78520 53348 78520 52570 78818 51851 78980 51689 78818 51527 78520 50808 78520 50030 78818 49311 79368 48761 80087 48463 80865 48463 81584 48761 82127 49304 82127 16510 41487 16510 37677 20320 37677 72390 82127 72390 82127 66774 81584 67317 81567 67324 81670 67467 81770 67663 81838 67872 81873 68089 81873 68148 80526 68148 80526 68250 81873 68250 81873 68309 81838 68526 81770 68735 81670 68931 81541 69109 81386 69265 81208 69394 81012 69494 80803 69562 80586 69596 80526 69596 M 63378 50357 63260 50196 63170 50018 63108 49827 63077 49630 63077 49530 64347 49530 64347 49530 63077 49530 63077 49430 63108 49233 63170 49042 63260 48864 63378 48703 63473 48608 63311 48540 62796 48026 62518 47354 62518 46626 62796 45954 63030 45720 62796 45486 62518 44814 62518 44086 62796 43414 63030 43180 62796 42946 62518 42274 62518 41546 62796 40874 63030 40640 62796 40406 62518 39734 62518 39006 62796 38334 63030 38100 62796 37866 62518 37194 62518 36466 62796 35794 63030 35560 62796 35326 62518 34654 62518 33926 62796 33254 63030 33020 62796 32786 62518 32114 62518 31386 62796 30714 63311 30200 63983 29921 64710 29921 65383 30200 65897 30714 66175 31386 66175 32114 65897 32786 65663 33020 65897 33254 66175 33926 66175 34654 65897 35326 65663 35560 65897 35794 66175 36466 66175 37194 65897 37866 65663 38100 65897 38334 66175 39006 66175 39734 65897 40406 65663 40640 65897 40874 66175 41546 66175 42274 65897 42946 65663 43180 65897 43414 66175 44086 66175 44814 65897 45486 65663 45720 65897 45954 66175 46626 66175 47354 65897 48026 65383 48540 65220 48608 65315 48703 65433 48864 65524 49042 65585 49233 65617 49430 65617 49530 64347 49530 64347 49530 65617 49530 65617 49630 65585 49827 65524 50018 65433 50196 65315 50357 65220 50452 65383 50520 65897 51034 66175 51706 66175 52434 65897 53106 65663 53340 65897 53574 66175 54246 66175 54974 65897 55646 65663 55880 65897 56114 66175 56786 66175 57514 65897 58186 65663 58420 65897 58654 66175 59326 66175 60054 65897 60726 65663 60960 65897 61194 66175 61866 66175 62594 65897 63266 65663 63500 65897 63734 66175 64406 66175 65134 65897 65806 65383 66320 64710 66599 63983 66599 63311 66320 62796 65806 62518 65134 62518 64406 62796 63734 63030 63500 62796 63266 62518 62594 62518 61866 62796 61194 63030 60960 62796 60726 62518 60054 62518 59326 62796 58654 63030 58420 62796 58186 62518 57514 62518 56786 62796 56114 63030 55880 62796 55646 62518 54974 62518 54246 62796 53574 63030 53340 62796 53106 62518 52434 62518 51706 62796 51034 63311 50520 63473 50452 63378 50357 M 78338 20447 78338 19072 78295 19072 78295 20447 78207 20447 77990 20413 77780 20345 77584 20245 77407 20116 77251 19960 77122 19782 77022 19586 76954 19377 76920 19160 76920 19072 78295 19072 78295 19028 76920 19028 76920 18940 76954 18723 77022 18514 77122 18318 77251 18140 77407 17984 77584 17855 77780 17755 77990 17687 78207 17653 78295 17653 78295 19028 78338 19028 78338 17653 78427 17653 78644 17687 78853 17755 79049 17855 79227 17984 79382 18140 79511 18318 79611 18514 79679 18723 79714 18940 79714 19028 78338 19028 78338 19072 79714 19072 79714 19160 79679 19377 79611 19586 79511 19782 79382 19960 79227 20116 79049 20245 78853 20345 78644 20413 78427 20447 78338 20447 M 72652 30091 72652 30869 72355 31588 71805 32138 71086 32436 70308 32436 69589 32138 69039 31588 68741 30869 68741 30091 69039 29372 69589 28822 70308 28524 71086 28524 71805 28822 72355 29372 72652 30091 M 78338 43307 78338 41932 78295 41932 78295 43307 78207 43307 77990 43273 77780 43205 77584 43105 77407 42976 77251 42820 77122 42642 77022 42446 76954 42237 76920 42020 76920 41932 78295 41932 78295 41888 76920 41888 76920 41800 76954 41583 77022 41374 77122 41178 77251 41000 77407 40844 77584 40715 77780 40615 77990 40547 78207 40513 78295 40513 78295 41888 78338 41888 78338 40513 78427 40513 78644 40547 78853 40615 79049 40715 79227 40844 79382 41000 79511 41178 79611 41374 79679 41583 79714 41800 79714 41888 78338 41888 78338 41932 79714 41932 79714 42020 79679 42237 79611 42446 79511 42642 79382 42820 79227 42976 79049 43105 78853 43205 78644 43273 78427 43307 78338 43307 M 43442 47871 43442 48649 43145 49368 42595 49918 41876 50216 41098 50216 40379 49918 39829 49368 39531 48649 39531 47871 39829 47152 40379 46602 41098 46304 41876 46304 42595 46602 43145 47152 43442 47871 M 51062 47871 51062 48649 50765 49368 50215 49918 49496 50216 48718 50216 47999 49918 47449 49368 47151 48649 47151 47871 47449 47152 47999 46602 48718 46304 49496 46304 50215 46602 50765 47152 51062 47871 M 43668 64727 43903 64700 43903 67107 44310 67107 44310 64700 44546 64727 44832 64792 45109 64889 45374 65017 45623 65173 45853 65356 46060 65564 46244 65794 46400 66043 46528 66307 46625 66585 46690 66871 46717 67107 44310 67107 44310 67513 46717 67513 46690 67749 46625 68035 46528 68313 46400 68577 46244 68826 46060 69056 45853 69264 45623 69447 45374 69603 45109 69731 44832 69828 44546 69893 44310 69920 44310 67513 43903 67513 43903 69920 43668 69893 43381 69828 43104 69731 42839 69603 42590 69447 42361 69264 42153 69056 41970 68826 41813 68577 41686 68313 41589 68035 41523 67749 41497 67513 43903 67513 43903 67107 41497 67107 41523 66871 41589 66585 41686 66307 41813 66043 41970 65794 42153 65564 42361 65356 42590 65173 42839 65017 43104 64889 43381 64792 43668 64727 M 74345 37218 73626 37516 72848 37516 72129 37218 71579 36668 71281 35949 71281 35171 71579 34452 72129 33902 72848 33604 73626 33604 74345 33902 74507 34064 74669 33902 75388 33604 76166 33604 76885 33902 77435 34452 77732 35171 77732 35949 77435 36668 76885 37218 76166 37516 75388 37516 74669 37218 74507 37056 74345 37218 M 45413 58750 45347 58750 45347 57328 45246 57328 45246 58750 45181 58750 44952 58714 44731 58642 44525 58537 44337 58401 44173 58237 44037 58049 43931 57843 43860 57622 43823 57393 43823 57328 45246 57328 45246 57226 43823 57226 43823 57161 43860 56932 43931 56711 44037 56505 44173 56317 44244 56246 44146 56206 43574 55634 43265 54887 43265 54079 43574 53332 44146 52760 44892 52451 45701 52451 46448 52760 47019 53332 47329 54079 47329 54887 47019 55634 46448 56206 46349 56246 46420 56317 46557 56505 46662 56711 46734 56932 46770 57161 46770 57226 45347 57226 45347 57328 46770 57328 46770 57393 46734 57622 46662 57843 46557 58049 46420 58237 46256 58401 46069 58537 45862 58642 45642 58714 45413 58750 M 77487 67519 77487 67519 76916 68897 76916 68897 76008 70081 76008 70081 76008 70081 74824 70989 74824 70989 73446 71560 73446 71560 71967 71755 71967 71755 70488 71560 70488 71560 69109 70989 69109 70989 67926 70081 67926 70081 67926 70081 67017 68897 67017 68897 66446 67519 66446 67519 66252 66040 66252 66040 66446 64561 66446 64561 67017 63182 67017 63182 67926 61999 67926 61999 67926 61999 69109 61091 69109 61091 70488 60520 70488 60520 71967 60325 71967 60325 73446 60520 73446 60520 74824 61091 74824 61091 76008 61999 76008 61999 76916 63182 77487 64561 77682 66040 77682 66040 77487 67519 M 49547 21381 49547 21381 49742 22860 49547 24339 49547 24339 48976 25717 48976 25717 48068 26901 48068 26901 48068 26901 46884 27809 46884 27809 45506 28380 45506 28380 44027 28575 44027 28575 42548 28380 42548 28380 41169 27809 41169 27809 39986 26901 39986 26901 39077 25717 38506 24339 38312 22860 38506 21381 39077 20003 39077 20002 39986 18819 39986 18819 39986 18819 41169 17911 41169 17911 42548 17340 42548 17340 44027 17145 44027 17145 45506 17340 45506 17340 46884 17911 46884 17911 48068 18819 48068 18819 48068 18819 48976 20002 48976 20003 49547 21381 M 74345 48648 73626 48946 72848 48946 72129 48648 71579 48098 71281 47379 71281 46601 71579 45882 72129 45332 72848 45034 73626 45034 74345 45332 74507 45494 74669 45332 75388 45034 76166 45034 76885 45332 77435 45882 77732 46601 77732 47379 77435 48098 76885 48648 76166 48946 75388 48946 74669 48648 74507 48486 74345 48648 M 74345 25788 73626 26086 72848 26086 72129 25788 71579 25238 71281 24519 71281 23741 71579 23022 72129 22472 72848 22174 73626 22174 74345 22472 74507 22634 74669 22472 75388 22174 76166 22174 76885 22472 77435 23022 77732 23741 77732 24519 77435 25238 76885 25788 76166 26086 75388 26086 74669 25788 74507 25626 74345 25788 M 46668 60027 46903 60000 46903 62407 47310 62407 47310 60000 47546 60027 47832 60092 48109 60189 48374 60317 48623 60473 48853 60656 49060 60864 49244 61094 49400 61342 49528 61607 49625 61885 49690 62171 49717 62407 47310 62407 47310 62813 49717 62813 49690 63049 49625 63335 49528 63613 49400 63877 49244 64126 49114 64289 49689 64135 50525 64135 51332 64351 52056 64769 52647 65361 53065 66084 53282 66892 53282 67728 53065 68536 52647 69259 52056 69851 51332 70269 50525 70485 49689 70485 48881 70269 48157 69851 47566 69259 47148 68536 46932 67728 46932 66892 47148 66084 47566 65361 47789 65138 47546 65193 47310 65220 47310 62813 46903 62813 46903 65220 46668 65193 46381 65128 46104 65031 45839 64903 45590 64747 45361 64564 45153 64356 44970 64126 44813 63877 44686 63613 44589 63335 44523 63049 44497 62813 46903 62813 46903 62407 44497 62407 44523 62171 44589 61885 44686 61607 44813 61342 44970 61094 45153 60864 45361 60656 45590 60473 45839 60317 46104 60189 46381 60092 46668 60027 M 72652 41521 72652 42299 72355 43018 71805 43568 71086 43866 70308 43866 69589 43568 69039 43018 68741 42299 68741 41521 69039 40802 69589 40252 70308 39954 71086 39954 71805 40252 72355 40802 72652 41521 M 78338 31877 78338 30502 78295 30502 78295 31877 78207 31877 77990 31843 77780 31775 77584 31675 77407 31546 77251 31390 77122 31212 77022 31016 76954 30807 76920 30590 76920 30502 78295 30502 78295 30458 76920 30458 76920 30370 76954 30153 77022 29944 77122 29748 77251 29570 77407 29414 77584 29285 77780 29185 77990 29117 78207 29083 78295 29083 78295 30458 78338 30458 78338 29083 78427 29083 78644 29117 78853 29185 79049 29285 79227 29414 79382 29570 79511 29748 79611 29944 79679 30153 79714 30370 79714 30458 78338 30458 78338 30502 79714 30502 79714 30590 79679 30807 79611 31016 79511 31212 79382 31390 79227 31546 79049 31675 78853 31775 78644 31843 78427 31877 78338 31877 M 72652 18661 72652 19439 72355 20158 71805 20708 71086 21006 70308 21006 69589 20708 69039 20158 68741 19439 68741 18661 69039 17942 69589 17392 70308 17094 71086 17094 71805 17392 72355 17942 72652 18661 M 57695 46163 57813 46324 57904 46502 57965 46693 57997 46890 57997 46990 56727 46990 56727 46990 57997 46990 57997 47090 57965 47287 57904 47478 57813 47656 57695 47817 57600 47912 57763 47980 58277 48494 58555 49166 58555 49894 58277 50566 58043 50800 58277 51034 58555 51706 58555 52434 58277 53106 58043 53340 58277 53574 58555 54246 58555 54974 58277 55646 58043 55880 58277 56114 58555 56786 58555 57514 58277 58186 58043 58420 58277 58654 58555 59326 58555 60054 58277 60726 58043 60960 58277 61194 58555 61866 58555 62594 58277 63266 58043 63500 58277 63734 58555 64406 58555 65134 58277 65806 57763 66320 57090 66599 56363 66599 55691 66320 55176 65806 54898 65134 54898 64406 55176 63734 55410 63500 55176 63266 54898 62594 54898 61866 55176 61194 55410 60960 55176 60726 54898 60054 54898 59326 55176 58654 55410 58420 55176 58186 54898 57514 54898 56786 55176 56114 55410 55880 55176 55646 54898 54974 54898 54246 55176 53574 55410 53340 55176 53106 54898 52434 54898 51706 55176 51034 55410 50800 55176 50566 54898 49894 54898 49166 55176 48494 55691 47980 55853 47912 55758 47817 55640 47656 55550 47478 55488 47287 55457 47090 55457 46990 56727 46990 56727 46990 55457 46990 55457 46890 55488 46693 55550 46502 55640 46324 55758 46163 55853 46068 55691 46000 55176 45486 54898 44814 54898 44086 55176 43414 55410 43180 55176 42946 54898 42274 54898 41546 55176 40874 55410 40640 55176 40406 54898 39734 54898 39006 55176 38334 55410 38100 55176 37866 54898 37194 54898 36466 55176 35794 55410 35560 55176 35326 54898 34654 54898 33926 55176 33254 55410 33020 55176 32786 54898 32114 54898 31386 55176 30714 55691 30200 56363 29921 57090 29921 57763 30200 58277 30714 58555 31386 58555 32114 58277 32786 58043 33020 58277 33254 58555 33926 58555 34654 58277 35326 58043 35560 58277 35794 58555 36466 58555 37194 58277 37866 58043 38100 58277 38334 58555 39006 58555 39734 58277 40406 58043 40640 58277 40874 58555 41546 58555 42274 58277 42946 58043 43180 58277 43414 58555 44086 58555 44814 58277 45486 57763 46000 57600 46068 57695 46163 M 55711 25097 55711 25703 55479 26263 55050 26692 54490 26924 54387 26924 43011 38300 43011 38403 42779 38963 42350 39392 41790 39624 41184 39624 40623 39392 40195 38963 39963 38403 39963 37797 40195 37237 40623 36808 41184 36576 41286 36576 52663 25200 52663 25097 52895 24537 53323 24108 53884 23876 54490 23876 55050 24108 55479 24537 55711 25097 M 69681 25097 69681 25703 69449 26263 69376 26336 69376 26913 69190 27361 67920 28631 67577 28974 67129 29159 55962 29159 50326 34795 50326 40974 50399 41047 50631 41607 50631 42213 50399 42773 49970 43202 49410 43434 48804 43434 48243 43202 47815 42773 47583 42213 47583 41607 47815 41047 47887 40974 47887 34047 48073 33599 48416 33256 54766 26906 55214 26721 56552 26721 56339 26508 56041 25789 56041 25011 56339 24292 56501 24130 56339 23968 56041 23249 56041 22471 56339 21752 56889 21202 57608 20904 58386 20904 59105 21202 59267 21364 59429 21202 60148 20904 60926 20904 61645 21202 61807 21364 61969 21202 62688 20904 63466 20904 64185 21202 64735 21752 65032 22471 65032 23249 64735 23968 64185 24518 64168 24525 64271 24668 64371 24864 64439 25073 64474 25290 64474 25349 63127 25349 63127 25451 64474 25451 64474 25510 64439 25727 64371 25936 64271 26132 64142 26310 63987 26466 63809 26595 63613 26695 63532 26721 66382 26721 66857 26245 66633 25703 66633 25097 66865 24537 67293 24108 67854 23876 68460 23876 69020 24108 69449 24537 69681 25097 M 82127 16510 41487 16510 M 41082 16915 82127 16915 M 42699 17320 40677 17320 M 45354 17320 69763 17320 M 71630 17320 82127 17320 M 41618 17725 40272 17725 M 46435 17725 69256 17725 M 72137 17725 77875 17725 M 78295 17725 78338 17725 M 78759 17725 82127 17725 M 40884 18130 39867 18130 M 47169 18130 68961 18130 M 72432 18130 77261 18130 M 78295 18130 78338 18130 M 79372 18130 82127 18130 M 40356 18535 39462 18535 M 47697 18535 68793 18535 M 72600 18535 77015 18535 M 78295 18535 78338 18535 M 79618 18535 82127 18535 M 39893 18939 39057 18939 M 48160 18939 68741 18939 M 72652 18939 76920 18939 M 78295 18939 78338 18939 M 79714 18939 82127 18939 M 39582 19344 38652 19344 M 48471 19344 68741 19344 M 72652 19344 76949 19344 M 78295 19344 78338 19344 M 79684 19344 82127 19344 M 39272 19749 38247 19749 M 48782 19749 68869 19749 M 72524 19749 77105 19749 M 78295 19749 78338 19749 M 79528 19749 82127 19749 M 39015 20154 37843 20154 M 49039 20154 69037 20154 M 72356 20154 77460 20154 M 78295 20154 78338 20154 M 79174 20154 82127 20154 M 38847 20559 37677 20559 M 49207 20559 69440 20559 M 71954 20559 82127 20559 M 38679 20964 37677 20964 M 49374 20964 57464 20964 M 58530 20964 60004 20964 M 61070 20964 62544 20964 M 63610 20964 70206 20964 M 71187 20964 82127 20964 M 38511 21369 37677 21369 M 49542 21369 56722 21369 M 64351 21369 82127 21369 M 38455 21774 37677 21774 M 49599 21774 56330 21774 M 64744 21774 82127 21774 M 38401 22179 37677 22179 M 49652 22179 56162 22179 M 64911 22179 72837 22179 M 73636 22179 75377 22179 M 76176 22179 82127 22179 M 38348 22583 37677 22583 M 49705 22583 56041 22583 M 65032 22583 72017 22583 M 74456 22583 74557 22583 M 76996 22583 82127 22583 M 38329 22988 37677 22988 M 49725 22988 56041 22988 M 65032 22988 71612 22988 M 77401 22988 82127 22988 M 38382 23393 37677 23393 M 49671 23393 56101 23393 M 64973 23393 71425 23393 M 77588 23393 82127 23393 M 38435 23798 37677 23798 M 49618 23798 56268 23798 M 64805 23798 71281 23798 M 77732 23798 82127 23798 M 38488 24203 37677 24203 M 49565 24203 53228 24203 M 55145 24203 56428 24203 M 64499 24203 67198 24203 M 69115 24203 71281 24203 M 77732 24203 82127 24203 M 38618 24608 37677 24608 M 49436 24608 52865 24608 M 55508 24608 56208 24608 M 64228 24608 66835 24608 M 69478 24608 71318 24608 M 77696 24608 82127 24608 M 38785 25013 37677 25013 M 49268 25013 52697 25013 M 55676 25013 56041 25013 M 64420 25013 66667 25013 M 69646 25013 71485 25013 M 77528 25013 82127 25013 M 38953 25418 37677 25418 M 49100 25418 52445 25418 M 55711 25418 56041 25418 M 63127 25418 66633 25418 M 69681 25418 71759 25418 M 77255 25418 82127 25418 M 39158 25823 37677 25823 M 48895 25823 52040 25823 M 55661 25823 56055 25823 M 64408 25823 66682 25823 M 69631 25823 72212 25823 M 74261 25823 74752 25823 M 76801 25823 82127 25823 M 39469 26228 37677 26228 M 48585 26228 51635 26228 M 55493 26228 56223 26228 M 64202 26228 66850 26228 M 69463 26228 82127 26228 M 39779 26632 37677 26632 M 48274 26632 51230 26632 M 55109 26632 56463 26632 M 63735 26632 66470 26632 M 69376 26632 82127 26632 M 40163 27037 37677 27037 M 47890 27037 50825 27037 M 54273 27037 54635 27037 M 69324 27037 82127 27037 M 40691 27442 37677 27442 M 47362 27442 50420 27442 M 53869 27442 54230 27442 M 69109 27442 82127 27442 M 41261 27847 37677 27847 M 46793 27847 50015 27847 M 53464 27847 53825 27847 M 68704 27847 82127 27847 M 42238 28252 37677 28252 M 45815 28252 49610 28252 M 53059 28252 53420 28252 M 68299 28252 82127 28252 M 49205 28657 37677 28657 M 52654 28657 53015 28657 M 67894 28657 69987 28657 M 71406 28657 82127 28657 M 48801 29062 37677 29062 M 52249 29062 52611 29062 M 67364 29062 69349 29062 M 72044 29062 82127 29062 M 48396 29467 37677 29467 M 51844 29467 52206 29467 M 55654 29467 68999 29467 M 72394 29467 77354 29467 M 78295 29467 78338 29467 M 79279 29467 82127 29467 M 47991 29872 37677 29872 M 51439 29872 51801 29872 M 55249 29872 68832 29872 M 72562 29872 77059 29872 M 78295 29872 78338 29872 M 79575 29872 82127 29872 M 47586 30277 37677 30277 M 51034 30277 51396 30277 M 54844 30277 55614 30277 M 57840 30277 63234 30277 M 65460 30277 68741 30277 M 72652 30277 76934 30277 M 78295 30277 78338 30277 M 79699 30277 82127 30277 M 47181 30681 37677 30681 M 50629 30681 50991 30681 M 54439 30681 55209 30681 M 58244 30681 62829 30681 M 65864 30681 68741 30681 M 72652 30681 76934 30681 M 78295 30681 78338 30681 M 79699 30681 82127 30681 M 46776 31086 37677 31086 M 50224 31086 50586 31086 M 54034 31086 55022 31086 M 58431 31086 62642 31086 M 66051 31086 68831 31086 M 72562 31086 77058 31086 M 78295 31086 78338 31086 M 79576 31086 82127 31086 M 46371 31491 37677 31491 M 49820 31491 50181 31491 M 53630 31491 54898 31491 M 58555 31491 62518 31491 M 66175 31491 68999 31491 M 72395 31491 77352 31491 M 78295 31491 78338 31491 M 79281 31491 82127 31491 M 45966 31896 37677 31896 M 49415 31896 49776 31896 M 53225 31896 54898 31896 M 58555 31896 62518 31896 M 66175 31896 69347 31896 M 72046 31896 82127 31896 M 45561 32301 37677 32301 M 49010 32301 49371 32301 M 52820 32301 54975 32301 M 58478 32301 62595 32301 M 66098 32301 69982 32301 M 71411 32301 82127 32301 M 45156 32706 37677 32706 M 48605 32706 48966 32706 M 52415 32706 55143 32706 M 58310 32706 62763 32706 M 65930 32706 82127 32706 M 44752 33111 37677 33111 M 48200 33111 48562 33111 M 52010 33111 55319 33111 M 58134 33111 62939 33111 M 65754 33111 82127 33111 M 44347 33516 37677 33516 M 47795 33516 48157 33516 M 51605 33516 55068 33516 M 58385 33516 62688 33516 M 66005 33516 82127 33516 M 43942 33921 37677 33921 M 47390 33921 47940 33921 M 51200 33921 54900 33921 M 58553 33921 62520 33921 M 66173 33921 72110 33921 M 74363 33921 74650 33921 M 76903 33921 82127 33921 M 43537 34326 37677 34326 M 46985 34326 47887 34326 M 50795 34326 54898 34326 M 58555 34326 62518 34326 M 66175 34326 71705 34326 M 77308 34326 82127 34326 M 43132 34731 37677 34731 M 46580 34731 47887 34731 M 50390 34731 54930 34731 M 58524 34731 62550 34731 M 66144 34731 71463 34731 M 77550 34731 82127 34731 M 42727 35135 37677 35135 M 46175 35135 47887 35135 M 50326 35135 55097 35135 M 58356 35135 62717 35135 M 65976 35135 71296 35135 M 77718 35135 82127 35135 M 42322 35540 37677 35540 M 45771 35540 47887 35540 M 50326 35540 55391 35540 M 58063 35540 63011 35540 M 65683 35540 71281 35540 M 77732 35540 82127 35540 M 41917 35945 37677 35945 M 45366 35945 47887 35945 M 50326 35945 55114 35945 M 58340 35945 62734 35945 M 65960 35945 71281 35945 M 77732 35945 82127 35945 M 41512 36350 37677 36350 M 44961 36350 47887 36350 M 50326 36350 54946 36350 M 58507 36350 62566 36350 M 66127 36350 71447 36350 M 77566 36350 82127 36350 M 40751 36755 37677 36755 M 44556 36755 47887 36755 M 50326 36755 54898 36755 M 58555 36755 62518 36755 M 66175 36755 71666 36755 M 77348 36755 82127 36755 M 40272 37160 37677 37160 M 44151 37160 47887 37160 M 50326 37160 54898 37160 M 58555 37160 62518 37160 M 66175 37160 72071 37160 M 74403 37160 74611 37160 M 76943 37160 82127 37160 M 40059 37565 37677 37565 M 43746 37565 47887 37565 M 50326 37565 55052 37565 M 58402 37565 62672 37565 M 66022 37565 82127 37565 M 39963 37970 37677 37970 M 43341 37970 47887 37970 M 50326 37970 55280 37970 M 58173 37970 62900 37970 M 65793 37970 82127 37970 M 39963 38375 37677 38375 M 43011 38375 47887 38375 M 50326 38375 55159 38375 M 58294 38375 62779 38375 M 65914 38375 82127 38375 M 40119 38780 37677 38780 M 42855 38780 47887 38780 M 50326 38780 54992 38780 M 58462 38780 62612 38780 M 66082 38780 82127 38780 M 40416 39184 37677 39184 M 42558 39184 47887 39184 M 50326 39184 54898 39184 M 58555 39184 62518 39184 M 66175 39184 82127 39184 M 41100 39589 37677 39589 M 41874 39589 47887 39589 M 50326 39589 54898 39589 M 58555 39589 62518 39589 M 66175 39589 82127 39589 M 47887 39994 37677 39994 M 50326 39994 55006 39994 M 58448 39994 62626 39994 M 66068 39994 70211 39994 M 71182 39994 82127 39994 M 47887 40399 37677 40399 M 50326 40399 55173 40399 M 58280 40399 62793 40399 M 65900 40399 69442 40399 M 71952 40399 82127 40399 M 47887 40804 37677 40804 M 50326 40804 55246 40804 M 58207 40804 62866 40804 M 65827 40804 69038 40804 M 72355 40804 77462 40804 M 78295 40804 78338 40804 M 79171 40804 82127 40804 M 47748 41209 37677 41209 M 50466 41209 55038 41209 M 58416 41209 62658 41209 M 66036 41209 68870 41209 M 72523 41209 77106 41209 M 78295 41209 78338 41209 M 79527 41209 82127 41209 M 47583 41614 37677 41614 M 50631 41614 54898 41614 M 58555 41614 62518 41614 M 66175 41614 68741 41614 M 72652 41614 76949 41614 M 78295 41614 78338 41614 M 79684 41614 82127 41614 M 47583 42019 37677 42019 M 50631 42019 54898 42019 M 58555 42019 62518 42019 M 66175 42019 68741 42019 M 72652 42019 76920 42019 M 78295 42019 78338 42019 M 79714 42019 82127 42019 M 47670 42424 37677 42424 M 50543 42424 54960 42424 M 58493 42424 62580 42424 M 66113 42424 68792 42424 M 72601 42424 77015 42424 M 78295 42424 78338 42424 M 79619 42424 82127 42424 M 47870 42829 37677 42829 M 50343 42829 55128 42829 M 58326 42829 62748 42829 M 65946 42829 68960 42829 M 72433 42829 77260 42829 M 78295 42829 78338 42829 M 79374 42829 82127 42829 M 48319 43233 37677 43233 M 49894 43233 55357 43233 M 58096 43233 62977 43233 M 65716 43233 69254 43233 M 72139 43233 77869 43233 M 78295 43233 78338 43233 M 78764 43233 82127 43233 M 55083 43638 37677 43638 M 58370 43638 62703 43638 M 65990 43638 69758 43638 M 71635 43638 82127 43638 M 54916 44043 37677 44043 M 58538 44043 62536 44043 M 66158 44043 82127 44043 M 54898 44448 37677 44448 M 58555 44448 62518 44448 M 66175 44448 82127 44448 M 54914 44853 37677 44853 M 58539 44853 62534 44853 M 66159 44853 82127 44853 M 55082 45258 37677 45258 M 58371 45258 62702 45258 M 65992 45258 72308 45258 M 74166 45258 74848 45258 M 76706 45258 82127 45258 M 55353 45663 37677 45663 M 58100 45663 62973 45663 M 65720 45663 71798 45663 M 77215 45663 82127 45663 M 55853 46068 37677 46068 M 57600 46068 62749 46068 M 65944 46068 71502 46068 M 77512 46068 82127 46068 M 40691 46473 37677 46473 M 42282 46473 48311 46473 M 49902 46473 55565 46473 M 57888 46473 62581 46473 M 66112 46473 71334 46473 M 77679 46473 82127 46473 M 40103 46877 37677 46877 M 42870 46877 47723 46877 M 50490 46877 55459 46877 M 57995 46877 62518 46877 M 66175 46877 71281 46877 M 77732 46877 82127 46877 M 39775 47282 37677 47282 M 43199 47282 47395 47282 M 50819 47282 55487 47282 M 57966 47282 62518 47282 M 66175 47282 71281 47282 M 77732 47282 82127 47282 M 39607 47687 37677 47687 M 43366 47687 47227 47687 M 50986 47687 55663 47687 M 57790 47687 62656 47687 M 66037 47687 71409 47687 M 77605 47687 82127 47687 M 39531 48092 37677 48092 M 43442 48092 47151 48092 M 51062 48092 55578 48092 M 57875 48092 62863 48092 M 65831 48092 71576 48092 M 77437 48092 82127 48092 M 39531 48497 37677 48497 M 43442 48497 47151 48497 M 51062 48497 55175 48497 M 58278 48497 63267 48497 M 65426 48497 71978 48497 M 74495 48497 74518 48497 M 77035 48497 80005 48497 M 80947 48497 82127 48497 M 39636 48902 37677 48902 M 43338 48902 47256 48902 M 50958 48902 55007 48902 M 58446 48902 63241 48902 M 65452 48902 72742 48902 M 73731 48902 75282 48902 M 76271 48902 79227 48902 M 81725 48902 82127 48902 M 39803 49307 37677 49307 M 43170 49307 47423 49307 M 50790 49307 54898 49307 M 58555 49307 63096 49307 M 65597 49307 78822 49307 M 40173 49712 37677 49712 M 42801 49712 47793 49712 M 50421 49712 54898 49712 M 58555 49712 63090 49712 M 65604 49712 78652 49712 M 40858 50117 37677 50117 M 42115 50117 48478 50117 M 49735 50117 54990 50117 M 58463 50117 63220 50117 M 65473 50117 78520 50117 M 55158 50522 37677 50522 M 58295 50522 63309 50522 M 65385 50522 78520 50522 M 55284 50926 37677 50926 M 58169 50926 62904 50926 M 65789 50926 78569 50926 M 55053 51331 37677 51331 M 58400 51331 62673 51331 M 66020 51331 78737 51331 M 54898 51736 37677 51736 M 58555 51736 62518 51736 M 66175 51736 78932 51736 M 54898 52141 37677 52141 M 58555 52141 62518 52141 M 66175 52141 78697 52141 M 44663 52546 37677 52546 M 45930 52546 54944 52546 M 58509 52546 62564 52546 M 66129 52546 78530 52546 M 43955 52951 37677 52951 M 46638 52951 55112 52951 M 58341 52951 62732 52951 M 65961 52951 78520 52951 M 43564 53356 37677 53356 M 47029 53356 55394 53356 M 58059 53356 63014 53356 M 65679 53356 78523 53356 M 43396 53761 37677 53761 M 47197 53761 55099 53761 M 58354 53761 62719 53761 M 65974 53761 78691 53761 M 43265 54166 37677 54166 M 47329 54166 54931 54166 M 58522 54166 62551 54166 M 66142 54166 78916 54166 M 43265 54571 37677 54571 M 47329 54571 54898 54571 M 58555 54571 62518 54571 M 66175 54571 78743 54571 M 43301 54975 37677 54975 M 47292 54975 54899 54975 M 58555 54975 62519 54975 M 66175 54975 78576 54975 M 43469 55380 37677 55380 M 47124 55380 55066 55380 M 58387 55380 62686 55380 M 66007 55380 78520 55380 M 43725 55785 37677 55785 M 46868 55785 55316 55785 M 58138 55785 62936 55785 M 65758 55785 78520 55785 M 44130 56190 37677 56190 M 46463 56190 55145 56190 M 58309 56190 62765 56190 M 65929 56190 78645 56190 M 43991 56595 37677 56595 M 46603 56595 54977 56595 M 58476 56595 62597 56595 M 66096 56595 78813 56595 M 43849 57000 37677 57000 M 46744 57000 54898 57000 M 58555 57000 62518 57000 M 66175 57000 78789 57000 M 43825 57405 37677 57405 M 45246 57405 45347 57405 M 46768 57405 54898 57405 M 58555 57405 62518 57405 M 66175 57405 78621 57405 M 43921 57810 37677 57810 M 45246 57810 45347 57810 M 46673 57810 55020 57810 M 58433 57810 62640 57810 M 66053 57810 78520 57810 M 44157 58215 37677 58215 M 45246 58215 45347 58215 M 46436 58215 55205 58215 M 58248 58215 62825 58215 M 65868 58215 78520 58215 M 44687 58620 37677 58620 M 45246 58620 45347 58620 M 45907 58620 55211 58620 M 58243 58620 62831 58620 M 65863 58620 78599 58620 M 55023 59024 37677 59024 M 58430 59024 62643 59024 M 66050 59024 78767 59024 M 54898 59429 37677 59429 M 58555 59429 62518 59429 M 66175 59429 78859 59429 M 54898 59834 37677 59834 M 58555 59834 62518 59834 M 66175 59834 78667 59834 M 46000 60239 37677 60239 M 46903 60239 47310 60239 M 48213 60239 54975 60239 M 58479 60239 62595 60239 M 66099 60239 78520 60239 M 45376 60644 37677 60644 M 46903 60644 47310 60644 M 48838 60644 55142 60644 M 58311 60644 62762 60644 M 65931 60644 70187 60644 M 73746 60644 78520 60644 M 45005 61049 37677 61049 M 46903 61049 47310 61049 M 49208 61049 55321 61049 M 58132 61049 62941 61049 M 65752 61049 69210 61049 M 74724 61049 78553 61049 M 44760 61454 37677 61454 M 46903 61454 47310 61454 M 49454 61454 55069 61454 M 58385 61454 62689 61454 M 66005 61454 68636 61454 M 75298 61454 78721 61454 M 44598 61859 37677 61859 M 46903 61859 47310 61859 M 49616 61859 54901 61859 M 58552 61859 62521 61859 M 66172 61859 68108 61859 M 75825 61859 78970 61859 M 44513 62264 37677 62264 M 46903 62264 47310 62264 M 49700 62264 54898 62264 M 58555 62264 62518 62264 M 66175 62264 67722 62264 M 76211 62264 78713 62264 M 46903 62669 37677 62669 M 47310 62669 54929 62669 M 58524 62669 62549 62669 M 66144 62669 67412 62669 M 76522 62669 78545 62669 M 44529 63073 37677 63073 M 46903 63073 47310 63073 M 49684 63073 55097 63073 M 58357 63073 62717 63073 M 65977 63073 67101 63073 M 76832 63073 78520 63073 M 44639 63478 37677 63478 M 46903 63478 47310 63478 M 49575 63478 55389 63478 M 58065 63478 63009 63478 M 65685 63478 66895 63478 M 77039 63478 78520 63478 M 44817 63883 37677 63883 M 46903 63883 47310 63883 M 49396 63883 55114 63883 M 58339 63883 62734 63883 M 65959 63883 66727 63883 M 77206 63883 78675 63883 M 45099 64288 37677 64288 M 46903 64288 47310 64288 M 49115 64288 49117 64288 M 51096 64288 54947 64288 M 58507 64288 62567 64288 M 66127 64288 66559 64288 M 77374 64288 78879 64288 M 45523 64693 37677 64693 M 46903 64693 47310 64693 M 51924 64693 54898 64693 M 58555 64693 62518 64693 M 66175 64693 66429 64693 M 77504 64693 78759 64693 M 42710 65098 37677 65098 M 43903 65098 44310 65098 M 45504 65098 46296 65098 M 46903 65098 47310 65098 M 52385 65098 54898 65098 M 58555 65098 62518 65098 M 66175 65098 66376 65098 M 77558 65098 78591 65098 M 42214 65503 37677 65503 M 43903 65503 44310 65503 M 45999 65503 47484 65503 M 52730 65503 55051 65503 M 58403 65503 62671 65503 M 66023 65503 66322 65503 M 77611 65503 78520 65503 M 41898 65908 37677 65908 M 43903 65908 44310 65908 M 46315 65908 47250 65908 M 52963 65908 55278 65908 M 58175 65908 62898 65908 M 65795 65908 66269 65908 M 77664 65908 78520 65908 M 41684 66313 37677 66313 M 43903 66313 44310 66313 M 46529 66313 47087 66313 M 53126 66313 55683 66313 M 57770 66313 63303 66313 M 65390 66313 66288 66313 M 77646 66313 78629 66313 M 41558 66718 37677 66718 M 43903 66718 44310 66718 M 46655 66718 46978 66718 M 53235 66718 66341 66718 M 77592 66718 78797 66718 M 43903 67123 37677 67123 M 44310 67123 46932 67123 M 53282 67123 66394 67123 M 77539 67123 79173 67123 M 81778 67123 82127 67123 M 41498 67527 37677 67527 M 43903 67527 44310 67527 M 46715 67527 46932 67527 M 53282 67527 66450 67527 M 77484 67527 79250 67527 M 81701 67527 82127 67527 M 41565 67932 37677 67932 M 43903 67932 44310 67932 M 46648 67932 46986 67932 M 53227 67932 66618 67932 M 77316 67932 79103 67932 M 81848 67932 82127 67932 M 41698 68337 37677 68337 M 43903 68337 44310 68337 M 46516 68337 47095 68337 M 53118 68337 66785 68337 M 77148 68337 79083 68337 M 80425 68337 80526 68337 M 81868 68337 82127 68337 M 41917 68742 37677 68742 M 43903 68742 44310 68742 M 46297 68742 47267 68742 M 52946 68742 66953 68742 M 76980 68742 79185 68742 M 80425 68742 80526 68742 M 81767 68742 82127 68742 M 42244 69147 37677 69147 M 43903 69147 44310 69147 M 45970 69147 47501 69147 M 52712 69147 67209 69147 M 76725 69147 79448 69147 M 80425 69147 80526 69147 M 81503 69147 82127 69147 M 42757 69552 37677 69552 M 43903 69552 44310 69552 M 45456 69552 47858 69552 M 52355 69552 67519 69552 M 76414 69552 80119 69552 M 80425 69552 80526 69552 M 80833 69552 82127 69552 M 48341 69957 37677 69957 M 51872 69957 67830 69957 M 76103 69957 82127 69957 M 49229 70362 37677 70362 M 50985 70362 68291 70362 M 75642 70362 82127 70362 M 68819 70767 37677 70767 M 75114 70767 82127 70767 M 69549 71172 37677 71172 M 74384 71172 82127 71172 M 70610 71576 37677 71576 M 73323 71576 82127 71576 M 82127 71981 37677 71981 M 37677 72386 82127 72386 M 68157 25400 68157 26670 66887 27940 55457 27940 49107 34290 49107 41910" fill="none" stroke-width="406"></path>
</g></g>
</g></svg>