<?xml version="1.0" encoding="UTF-8" standalone="no"?>
<svg width="350px" height="350px" viewBox="0 0 350 350" version="1.1" xmlns="http://www.w3.org/2000/svg" xmlns:xlink="http://www.w3.org/1999/xlink" xmlns:sketch="http://www.bohemiancoding.com/sketch/ns">
    <!-- Generator: Sketch 3.0.2 (7799) - http://www.bohemiancoding.com/sketch -->
    <title>3_blue_roundrect</title>
    <description>Created with Sketch.</description>
    <defs></defs>
    <g id="Page-1" stroke="none" stroke-width="1" fill="none" fill-rule="evenodd" sketch:type="MSPage">
        <g id="roundrect-blue" sketch:type="MSLayerGroup">
            <rect id="Rectangle-8" fill="#FFFFFF" sketch:type="MSShapeGroup" x="0" y="0" width="350" height="350" rx="20"></rect>
            <path d="M150.899155,262.822 C127.72713,262.822 106.158674,255.968306 88,244.221436 C91.2100662,244.603797 94.4764622,244.799406 97.7882146,244.799406 C117.012034,244.799406 134.704708,238.180442 148.74765,227.076499 C130.792348,226.742118 115.638904,214.772328 110.417791,198.323463 C112.922638,198.806949 115.493325,199.066039 118.137167,199.066039 C121.879805,199.066039 125.504664,198.560408 128.948096,197.614104 C110.176378,193.811171 96.0332126,177.077381 96.0332126,157.017501 C96.0332126,156.843298 96.0332126,156.669834 96.0361388,156.497107 C101.568894,159.598062 107.895388,161.460407 114.622042,161.675208 C103.612129,154.250926 96.3675336,141.578421 96.3675336,127.21482 C96.3675336,119.627408 98.3910165,112.515363 101.922967,106.400554 C122.160723,131.448831 152.395186,147.931651 186.497385,149.658176 C185.798017,146.628083 185.434434,143.468077 185.434434,140.223183 C185.434434,117.359083 203.806723,98.822 226.468122,98.822 C238.269578,98.822 248.933465,103.850257 256.418742,111.896796 C265.765097,110.039618 274.546692,106.593949 282.47456,101.849879 C279.410805,111.517388 272.905081,119.631099 264.432935,124.755315 C272.733165,123.754388 280.641282,121.528875 288,118.236001 C282.498701,126.538678 275.541607,133.830831 267.52522,139.668096 C267.604228,141.44334 267.643732,143.228917 267.643732,145.02409 C267.643732,199.7348 226.372289,262.822 150.899155,262.822" id="Fill-1" fill="#5E9FCB" sketch:type="MSShapeGroup"></path>
        </g>
    </g>
</svg>